<svg width="205" height="38" viewBox="0 0 205 38" fill="none" xmlns="http://www.w3.org/2000/svg">
<path d="M29.3493 26.568C29.3973 26.568 29.4213 26.64 29.4213 26.784C29.4213 26.928 29.3973 27 29.3493 27C28.5333 27 27.8853 26.988 27.4053 26.964L24.7413 26.928L22.0413 26.964C21.5853 26.988 20.9613 27 20.1693 27C20.0973 27 20.0613 26.928 20.0613 26.784C20.0613 26.64 20.0973 26.568 20.1693 26.568C21.1773 26.568 21.8613 26.448 22.2213 26.208C22.5813 25.968 22.7613 25.464 22.7613 24.696L22.7253 24.084L21.9693 9.36L14.5533 26.748C14.5053 26.844 14.4093 26.892 14.2653 26.892C14.1213 26.892 14.0253 26.844 13.9773 26.748L4.86933 9.432L4.58133 22.428C4.55733 23.724 4.80933 24.744 5.33733 25.488C5.88933 26.208 6.65733 26.568 7.64133 26.568C7.71333 26.568 7.74933 26.64 7.74933 26.784C7.74933 26.928 7.71333 27 7.64133 27C6.99333 27 6.48933 26.988 6.12933 26.964L4.14933 26.928L1.88133 26.964C1.49733 26.988 0.981328 27 0.333328 27C0.261328 27 0.225328 26.928 0.225328 26.784C0.225328 26.64 0.261328 26.568 0.333328 26.568C1.31733 26.568 2.09733 26.196 2.67333 25.452C3.24933 24.708 3.54933 23.7 3.57333 22.428L3.89733 7.524L3.86133 7.488C3.38133 6.6 2.87733 5.952 2.34933 5.544C1.84533 5.136 1.25733 4.932 0.585328 4.932C0.513328 4.932 0.477328 4.86 0.477328 4.716C0.477328 4.572 0.513328 4.5 0.585328 4.5L2.27733 4.536C2.61333 4.56 3.04533 4.572 3.57333 4.572L5.48133 4.536C5.69733 4.512 5.97333 4.5 6.30933 4.5C6.62133 4.5 6.86133 4.608 7.02933 4.824C7.19733 5.04 7.50933 5.556 7.96533 6.372L15.8133 21.096L22.6533 5.4C22.7973 5.064 22.9413 4.836 23.0853 4.716C23.2533 4.572 23.4693 4.5 23.7333 4.5C23.9493 4.5 24.1893 4.512 24.4533 4.536C24.7413 4.56 25.0653 4.572 25.4253 4.572L27.5493 4.536C27.8853 4.512 28.3653 4.5 28.9893 4.5C29.0613 4.5 29.0973 4.572 29.0973 4.716C29.0973 4.86 29.0613 4.932 28.9893 4.932C27.8613 4.932 27.0453 5.16 26.5413 5.616C26.0373 6.072 25.8093 6.78 25.8573 7.74L26.7213 24.084C26.7693 24.828 26.8533 25.368 26.9733 25.704C27.1173 26.04 27.3573 26.268 27.6933 26.388C28.0533 26.508 28.6053 26.568 29.3493 26.568ZM45.3125 25.056C45.4085 25.056 45.4685 25.116 45.4925 25.236C45.5405 25.332 45.5165 25.404 45.4205 25.452L41.7125 27.216C41.6165 27.264 41.4965 27.288 41.3525 27.288C40.9925 27.288 40.6325 27.108 40.2725 26.748C39.9365 26.388 39.6965 25.896 39.5525 25.272L37.8965 26.172C37.2725 26.484 36.6245 26.748 35.9525 26.964C35.2805 27.156 34.6805 27.252 34.1525 27.252C33.3845 27.252 32.7725 27.06 32.3165 26.676C31.8845 26.268 31.6685 25.692 31.6685 24.948C31.6685 24.396 31.8005 23.952 32.0645 23.616C32.3525 23.28 32.7485 23.004 33.2525 22.788C33.7805 22.548 34.6085 22.236 35.7365 21.852L39.4085 20.664V17.82C39.4085 16.38 39.2645 15.324 38.9765 14.652C38.6885 13.956 38.2205 13.608 37.5725 13.608C36.9965 13.608 36.5405 13.824 36.2045 14.256C35.8685 14.688 35.6645 15.396 35.5925 16.38C35.4485 17.724 34.7405 18.396 33.4685 18.396C32.3405 18.396 31.7765 17.904 31.7765 16.92C31.7765 16.272 32.1845 15.624 33.0005 14.976C33.8165 14.328 34.8005 13.8 35.9525 13.392C37.1045 12.984 38.1125 12.78 38.9765 12.78C40.1045 12.78 41.0165 13.116 41.7125 13.788C42.4325 14.46 42.7925 15.444 42.7925 16.74V23.112C42.7925 23.808 42.9125 24.348 43.1525 24.732C43.4165 25.116 43.7765 25.308 44.2325 25.308C44.5685 25.308 44.9165 25.224 45.2765 25.056H45.3125ZM39.4445 24.696C39.4205 24.528 39.4085 24.276 39.4085 23.94V21.276L37.4285 21.996C36.7805 22.236 36.3125 22.5 36.0245 22.788C35.7605 23.076 35.6285 23.424 35.6285 23.832C35.6285 24.336 35.7725 24.732 36.0605 25.02C36.3485 25.308 36.7085 25.452 37.1405 25.452C37.6685 25.452 38.2805 25.284 38.9765 24.948L39.4445 24.696ZM63.4889 24.66C63.5609 24.66 63.6209 24.72 63.6689 24.84C63.7409 24.96 63.7529 25.032 63.7049 25.056L58.7369 27.468L58.5569 27.504C58.3409 27.504 58.1369 27.276 57.9449 26.82C57.7769 26.364 57.6689 25.74 57.6209 24.948C55.8449 26.628 54.0329 27.468 52.1849 27.468C51.1289 27.468 50.1689 27.192 49.3049 26.64C48.4649 26.088 47.7929 25.284 47.2889 24.228C46.7849 23.148 46.5329 21.888 46.5329 20.448C46.5329 18.624 46.9529 17.136 47.7929 15.984C48.6569 14.808 49.7129 13.956 50.9609 13.428C52.2329 12.9 53.5049 12.636 54.7769 12.636C55.6649 12.636 56.6009 12.78 57.5849 13.068V5.796C57.5849 4.956 57.5009 4.356 57.3329 3.996C57.1889 3.636 56.9249 3.456 56.5409 3.456C56.2289 3.456 55.7849 3.588 55.2089 3.852H55.1729C55.0769 3.852 54.9929 3.792 54.9209 3.672C54.8729 3.528 54.8729 3.444 54.9209 3.42L60.2129 0.935999L60.3569 0.899999C60.4769 0.899999 60.6089 0.959999 60.7529 1.08C60.8969 1.176 60.9689 1.272 60.9689 1.368V22.824C60.9689 23.64 61.0409 24.216 61.1849 24.552C61.3529 24.888 61.6169 25.056 61.9769 25.056C62.2889 25.056 62.7809 24.924 63.4529 24.66H63.4889ZM54.1649 25.74C55.3649 25.74 56.5049 25.236 57.5849 24.228V24.048V15.3C57.1529 14.7 56.6609 14.268 56.1089 14.004C55.5809 13.716 54.9569 13.572 54.2369 13.572C52.9409 13.572 51.9449 14.028 51.2489 14.94C50.5769 15.828 50.2409 17.28 50.2409 19.296C50.2409 21.312 50.6009 22.896 51.3209 24.048C52.0409 25.176 52.9889 25.74 54.1649 25.74ZM77.7004 24.624C77.7484 24.624 77.7964 24.672 77.8444 24.768C77.9164 24.864 77.9284 24.936 77.8804 24.984C76.9924 25.848 76.0924 26.472 75.1804 26.856C74.2684 27.24 73.2724 27.432 72.1924 27.432C70.6804 27.432 69.3724 27.12 68.2684 26.496C67.1644 25.848 66.3244 24.996 65.7484 23.94C65.1724 22.86 64.8844 21.708 64.8844 20.484C64.8844 19.092 65.2444 17.808 65.9644 16.632C66.6844 15.432 67.6684 14.496 68.9164 13.824C70.1644 13.128 71.5564 12.78 73.0924 12.78C74.5804 12.78 75.7204 13.104 76.5124 13.752C77.3044 14.376 77.7004 15.24 77.7004 16.344C77.7004 17.04 77.5684 17.388 77.3044 17.388H75.1084L68.6284 17.46C68.5564 17.916 68.5204 18.42 68.5204 18.972C68.5204 21.036 69.0004 22.668 69.9604 23.868C70.9444 25.068 72.2884 25.668 73.9924 25.668C74.5924 25.668 75.2164 25.584 75.8644 25.416C76.5124 25.248 77.1004 24.996 77.6284 24.66L77.7004 24.624ZM71.7604 13.5C71.0404 13.5 70.4164 13.788 69.8884 14.364C69.3604 14.94 68.9764 15.732 68.7364 16.74L73.8484 16.632C73.7764 14.544 73.0804 13.5 71.7604 13.5ZM98.6648 12.636C99.7448 12.636 100.741 12.888 101.653 13.392C102.565 13.896 103.285 14.652 103.813 15.66C104.365 16.668 104.641 17.892 104.641 19.332C104.641 21.06 104.269 22.536 103.525 23.76C102.805 24.984 101.845 25.908 100.645 26.532C99.4688 27.156 98.2088 27.468 96.8648 27.468C95.9528 27.468 95.0528 27.324 94.1648 27.036C93.3008 26.748 92.5088 26.328 91.7888 25.776L88.5128 27.252H88.4408C88.3448 27.252 88.2848 27.204 88.2608 27.108C88.2368 27.012 88.2728 26.952 88.3688 26.928C88.9448 26.592 89.3768 26.136 89.6648 25.56C89.9768 24.96 90.1328 24.204 90.1328 23.292V5.796C90.1328 4.956 90.0488 4.356 89.8808 3.996C89.7368 3.636 89.4608 3.456 89.0528 3.456C88.7408 3.456 88.2968 3.588 87.7208 3.852H87.6848C87.5888 3.852 87.5168 3.792 87.4688 3.672C87.4208 3.528 87.4208 3.444 87.4688 3.42L92.7248 0.935999L92.9048 0.899999C93.0248 0.899999 93.1448 0.959999 93.2648 1.08C93.4088 1.176 93.4808 1.272 93.4808 1.368V15.048C94.2728 14.304 95.0768 13.716 95.8928 13.284C96.7088 12.852 97.6328 12.636 98.6648 12.636ZM97.7288 26.748C98.7608 26.748 99.5528 26.22 100.105 25.164C100.657 24.108 100.933 22.632 100.933 20.736C100.933 18.648 100.585 17.1 99.8888 16.092C99.1928 15.06 98.2208 14.544 96.9728 14.544C95.8448 14.544 94.6808 14.952 93.4808 15.768V21.06C93.4808 22.38 93.7088 23.472 94.1648 24.336C94.6208 25.176 95.1728 25.788 95.8208 26.172C96.4688 26.556 97.1048 26.748 97.7288 26.748ZM121.655 13.104C121.703 13.104 121.727 13.176 121.727 13.32C121.727 13.464 121.703 13.536 121.655 13.536C120.887 13.536 120.215 13.872 119.639 14.544C119.087 15.192 118.583 16.14 118.127 17.388L114.131 28.008C112.859 31.368 111.635 33.72 110.459 35.064C109.307 36.432 108.023 37.116 106.607 37.116C105.887 37.116 105.335 36.96 104.951 36.648C104.567 36.36 104.375 35.928 104.375 35.352C104.375 34.8 104.543 34.38 104.879 34.092C105.215 33.804 105.623 33.66 106.103 33.66C106.367 33.66 106.583 33.696 106.751 33.768C106.943 33.84 107.171 33.96 107.435 34.128C107.891 34.44 108.323 34.596 108.731 34.596C109.283 34.596 109.775 34.38 110.207 33.948C110.663 33.54 111.131 32.844 111.611 31.86C112.091 30.9 112.667 29.52 113.339 27.72L107.579 16.092C107.051 15.06 106.631 14.376 106.319 14.04C106.031 13.704 105.671 13.536 105.239 13.536C105.167 13.536 105.131 13.464 105.131 13.32C105.131 13.176 105.167 13.104 105.239 13.104C105.911 13.104 106.427 13.116 106.787 13.14L108.299 13.176L110.783 13.14C111.167 13.116 111.683 13.104 112.331 13.104C112.403 13.104 112.439 13.176 112.439 13.32C112.439 13.464 112.403 13.536 112.331 13.536C111.707 13.536 111.251 13.596 110.963 13.716C110.675 13.812 110.531 13.98 110.531 14.22C110.531 14.412 110.603 14.652 110.747 14.94L114.995 23.616L117.155 17.352C117.371 16.728 117.479 16.164 117.479 15.66C117.479 14.988 117.287 14.472 116.903 14.112C116.519 13.728 115.967 13.536 115.247 13.536C115.199 13.536 115.175 13.464 115.175 13.32C115.175 13.176 115.199 13.104 115.247 13.104C115.895 13.104 116.387 13.116 116.723 13.14L118.883 13.176L120.323 13.14C120.611 13.116 121.055 13.104 121.655 13.104ZM147.904 26.568C147.976 26.568 148.012 26.64 148.012 26.784C148.012 26.928 147.976 27 147.904 27C147.28 27 146.788 26.988 146.428 26.964L144.268 26.928L142.18 26.964C141.796 26.988 141.292 27 140.668 27C140.596 27 140.56 26.928 140.56 26.784C140.56 26.64 140.596 26.568 140.668 26.568C141.412 26.568 141.916 26.4 142.18 26.064C142.444 25.704 142.576 25.044 142.576 24.084V18.9C142.576 17.604 142.336 16.644 141.856 16.02C141.4 15.396 140.668 15.084 139.66 15.084C139.084 15.084 138.484 15.204 137.86 15.444C137.26 15.684 136.732 16.008 136.276 16.416V24.084C136.276 25.044 136.408 25.704 136.672 26.064C136.96 26.4 137.476 26.568 138.22 26.568C138.292 26.568 138.328 26.64 138.328 26.784C138.328 26.928 138.292 27 138.22 27C137.596 27 137.104 26.988 136.744 26.964L134.584 26.928L132.46 26.964C132.1 26.988 131.608 27 130.984 27C130.912 27 130.876 26.928 130.876 26.784C130.876 26.64 130.912 26.568 130.984 26.568C131.728 26.568 132.232 26.4 132.496 26.064C132.76 25.704 132.892 25.044 132.892 24.084V17.316C132.892 16.572 132.796 16.032 132.604 15.696C132.436 15.336 132.16 15.156 131.776 15.156C131.368 15.156 130.792 15.324 130.048 15.66H129.976C129.904 15.66 129.844 15.6 129.796 15.48C129.772 15.36 129.784 15.288 129.832 15.264L134.836 12.816C134.98 12.768 135.064 12.744 135.088 12.744C135.352 12.744 135.604 13.008 135.844 13.536C136.084 14.04 136.228 14.736 136.276 15.624C137.932 13.656 139.756 12.672 141.748 12.672C143.044 12.672 144.064 13.092 144.808 13.932C145.576 14.748 145.96 15.828 145.96 17.172V24.084C145.96 25.044 146.092 25.704 146.356 26.064C146.644 26.4 147.16 26.568 147.904 26.568ZM149.933 27C149.861 27 149.825 26.928 149.825 26.784C149.825 26.64 149.861 26.568 149.933 26.568C150.677 26.568 151.181 26.4 151.445 26.064C151.709 25.704 151.841 25.044 151.841 24.084V17.64C151.841 16.824 151.757 16.236 151.589 15.876C151.421 15.516 151.145 15.336 150.761 15.336C150.449 15.336 150.005 15.468 149.429 15.732H149.393C149.297 15.732 149.225 15.672 149.177 15.552C149.129 15.408 149.141 15.324 149.213 15.3L154.649 12.78L154.757 12.744C154.877 12.744 154.997 12.804 155.117 12.924C155.237 13.044 155.297 13.152 155.297 13.248V14.04C155.249 15 155.225 16.176 155.225 17.568V24.084C155.225 25.044 155.357 25.704 155.621 26.064C155.909 26.4 156.425 26.568 157.169 26.568C157.241 26.568 157.277 26.64 157.277 26.784C157.277 26.928 157.241 27 157.169 27C156.545 27 156.053 26.988 155.693 26.964L153.533 26.928L151.409 26.964C151.049 26.988 150.557 27 149.933 27ZM153.389 9.18C152.693 9.18 152.153 8.988 151.769 8.604C151.385 8.22 151.193 7.68 151.193 6.984C151.193 6.36 151.385 5.868 151.769 5.508C152.177 5.124 152.717 4.932 153.389 4.932C154.061 4.932 154.577 5.112 154.937 5.472C155.297 5.832 155.477 6.336 155.477 6.984C155.477 7.68 155.297 8.22 154.937 8.604C154.577 8.988 154.061 9.18 153.389 9.18ZM167.202 25.416C168.618 25.656 169.746 25.896 170.586 26.136C171.426 26.376 172.146 26.784 172.746 27.36C173.37 27.936 173.682 28.752 173.682 29.808C173.682 31.104 173.262 32.316 172.422 33.444C171.606 34.572 170.49 35.472 169.074 36.144C167.682 36.816 166.17 37.152 164.538 37.152C162.762 37.152 161.31 36.768 160.182 36C159.054 35.232 158.49 34.236 158.49 33.012C158.49 32.196 158.754 31.356 159.282 30.492C159.81 29.628 160.794 28.68 162.234 27.648C161.514 27.432 160.95 27.12 160.542 26.712C160.158 26.304 159.966 25.752 159.966 25.056C159.966 24.456 160.194 23.844 160.65 23.22C161.13 22.572 161.862 21.972 162.846 21.42C161.79 21.06 160.974 20.508 160.398 19.764C159.822 19.02 159.534 18.216 159.534 17.352C159.534 16.392 159.846 15.576 160.47 14.904C161.094 14.232 161.886 13.728 162.846 13.392C163.806 13.032 164.766 12.852 165.726 12.852C167.334 12.852 168.666 13.248 169.722 14.04C170.37 13.608 171.006 13.284 171.63 13.068C172.254 12.852 172.926 12.744 173.646 12.744C173.838 12.744 173.934 13.08 173.934 13.752C173.934 14.088 173.886 14.46 173.79 14.868C173.694 15.276 173.61 15.444 173.538 15.372C172.53 14.964 171.63 14.76 170.838 14.76H170.55C171.174 15.504 171.486 16.344 171.486 17.28C171.486 18.192 171.174 18.996 170.55 19.692C169.95 20.364 169.17 20.88 168.21 21.24C167.25 21.6 166.266 21.78 165.258 21.78C164.61 21.78 163.998 21.708 163.422 21.564C162.942 21.948 162.702 22.44 162.702 23.04C162.702 23.568 162.894 23.976 163.278 24.264C163.686 24.552 164.178 24.768 164.754 24.912C165.33 25.056 166.146 25.224 167.202 25.416ZM164.538 13.536C163.53 13.536 163.026 14.484 163.026 16.38C163.026 17.628 163.326 18.732 163.926 19.692C164.526 20.652 165.294 21.132 166.23 21.132C166.686 21.132 167.082 20.892 167.418 20.412C167.778 19.932 167.958 19.176 167.958 18.144C167.958 16.848 167.622 15.756 166.95 14.868C166.278 13.98 165.474 13.536 164.538 13.536ZM166.446 36C167.694 36 168.702 35.628 169.47 34.884C170.262 34.164 170.658 33.192 170.658 31.968C170.658 31.056 170.394 30.348 169.866 29.844C169.362 29.364 168.738 29.016 167.994 28.8C167.274 28.608 166.278 28.416 165.006 28.224L163.062 27.9C162.39 28.692 162.054 29.82 162.054 31.284C162.054 32.796 162.462 33.96 163.278 34.776C164.094 35.592 165.15 36 166.446 36ZM191.905 26.568C192.001 26.568 192.049 26.64 192.049 26.784C192.049 26.928 192.001 27 191.905 27C191.281 27 190.777 26.988 190.393 26.964L188.305 26.928L186.145 26.964C185.785 26.988 185.293 27 184.669 27C184.621 27 184.597 26.928 184.597 26.784C184.597 26.64 184.621 26.568 184.669 26.568C185.413 26.568 185.917 26.4 186.181 26.064C186.469 25.704 186.613 25.044 186.613 24.084V18.9C186.613 17.604 186.373 16.644 185.893 16.02C185.413 15.396 184.669 15.084 183.661 15.084C183.085 15.084 182.485 15.204 181.861 15.444C181.261 15.684 180.733 16.008 180.277 16.416V24.084C180.277 25.044 180.409 25.704 180.673 26.064C180.961 26.4 181.477 26.568 182.221 26.568C182.317 26.568 182.365 26.64 182.365 26.784C182.365 26.928 182.317 27 182.221 27C181.597 27 181.093 26.988 180.709 26.964L178.621 26.928L176.461 26.964C176.101 26.988 175.609 27 174.985 27C174.937 27 174.913 26.928 174.913 26.784C174.913 26.64 174.937 26.568 174.985 26.568C175.729 26.568 176.233 26.4 176.497 26.064C176.785 25.704 176.929 25.044 176.929 24.084V5.796C176.929 4.956 176.845 4.356 176.677 3.996C176.533 3.636 176.269 3.456 175.885 3.456C175.549 3.456 175.093 3.588 174.517 3.852H174.481C174.409 3.852 174.337 3.792 174.265 3.672C174.217 3.528 174.217 3.444 174.265 3.42L179.521 0.935999L179.701 0.899999C179.821 0.899999 179.941 0.959999 180.061 1.08C180.205 1.176 180.277 1.272 180.277 1.368V15.624C181.981 13.656 183.805 12.672 185.749 12.672C187.045 12.672 188.065 13.092 188.809 13.932C189.577 14.748 189.961 15.828 189.961 17.172V24.084C189.961 25.044 190.093 25.704 190.357 26.064C190.645 26.4 191.161 26.568 191.905 26.568ZM204.209 24.48C204.305 24.48 204.377 24.528 204.425 24.624C204.497 24.72 204.497 24.792 204.425 24.84C203.537 25.728 202.673 26.388 201.833 26.82C200.993 27.228 200.105 27.432 199.169 27.432C198.113 27.432 197.213 27.18 196.469 26.676C195.725 26.172 195.353 25.32 195.353 24.12V16.128C195.353 15.384 195.221 14.868 194.957 14.58C194.693 14.292 194.213 14.148 193.517 14.148C193.493 14.148 193.457 14.112 193.409 14.04C193.385 13.968 193.373 13.896 193.373 13.824C193.373 13.728 193.385 13.656 193.409 13.608C193.433 13.536 193.469 13.5 193.517 13.5C194.741 13.452 195.725 13.188 196.469 12.708C197.237 12.228 197.825 11.496 198.233 10.512C198.281 10.416 198.377 10.368 198.521 10.368C198.689 10.368 198.773 10.416 198.773 10.512V13.392C200.165 13.368 201.725 13.26 203.453 13.068C203.501 13.068 203.549 13.164 203.597 13.356C203.669 13.524 203.705 13.716 203.705 13.932C203.705 14.172 203.657 14.412 203.561 14.652C203.489 14.868 203.405 14.964 203.309 14.94C201.749 14.604 200.237 14.424 198.773 14.4V22.932C198.773 23.844 199.001 24.516 199.457 24.948C199.937 25.38 200.561 25.596 201.329 25.596C202.289 25.596 203.225 25.236 204.137 24.516L204.209 24.48Z" fill="black"/>
</svg>
